<svg width="768" height="596" viewBox="0 0 768 596" fill="none" xmlns="http://www.w3.org/2000/svg">
<g clip-path="url(#clip0_72_4743)">
<path d="M301.215 371.031L302.466 385.737C302.614 387.454 303.437 389.042 304.755 390.153C306.072 391.264 307.776 391.807 309.494 391.663L432.065 381.235C433.781 381.087 435.37 380.264 436.48 378.947C437.591 377.629 438.134 375.925 437.99 374.208L436.739 359.501C436.591 357.784 435.768 356.196 434.45 355.085C433.133 353.974 431.429 353.431 429.711 353.576L307.14 364.003C305.424 364.151 303.835 364.974 302.725 366.292C301.614 367.609 301.071 369.313 301.215 371.031Z" fill="#FF4D5A"/>
<path d="M276.786 442.765L290.361 448.557C293.658 449.963 297.051 449.442 297.924 447.394L327.908 377.116C328.782 375.068 326.811 372.258 323.514 370.852L309.938 365.06C306.642 363.653 303.249 364.175 302.375 366.222L272.391 436.501C271.518 438.548 273.489 441.358 276.786 442.765Z" fill="#FF4D5A"/>
<path d="M348.655 419.995H578.544C575.896 400.832 579.162 381.317 587.904 364.06C596.647 346.802 610.449 332.625 627.466 323.424C644.484 314.223 663.904 310.436 683.131 312.57C702.359 314.704 720.476 322.657 735.062 335.365C749.647 348.074 760.006 364.932 764.751 383.687C769.497 402.441 768.405 422.197 761.619 440.313C754.834 458.43 742.68 474.043 726.782 485.066C710.884 496.088 692 501.995 672.655 501.995C661.032 502.007 649.507 499.881 638.655 495.723V587.995C638.655 590.117 637.812 592.152 636.311 593.652C634.811 595.152 632.776 595.995 630.655 595.995H348.655C346.533 595.995 344.498 595.152 342.998 593.652C341.497 592.152 340.655 590.117 340.655 587.995V427.995C340.655 425.873 341.497 423.839 342.998 422.338C344.498 420.838 346.533 419.995 348.655 419.995Z" fill="#E6E6E6"/>
<path d="M331.655 574.996H613.655C616.041 574.993 618.328 574.044 620.016 572.357C621.703 570.67 622.652 568.382 622.655 565.996V405.996C622.652 403.61 621.703 401.322 620.016 399.635C618.328 397.948 616.041 396.999 613.655 396.996H331.655C329.268 396.999 326.981 397.948 325.294 399.635C323.606 401.322 322.657 403.61 322.655 405.996V565.996C322.657 568.382 323.606 570.67 325.294 572.357C326.981 574.044 329.268 574.993 331.655 574.996ZM613.655 398.996C615.51 398.998 617.29 399.736 618.602 401.049C619.914 402.361 620.652 404.14 620.655 405.996V565.996C620.652 567.852 619.914 569.631 618.602 570.943C617.29 572.256 615.51 572.994 613.655 572.996H331.655C329.799 572.994 328.019 572.256 326.707 570.943C325.395 569.631 324.657 567.852 324.655 565.996V405.996C324.657 404.14 325.395 402.361 326.707 401.049C328.019 399.736 329.799 398.998 331.655 398.996H613.655Z" fill="#3F3D56"/>
<path d="M331.215 382.031L332.466 396.737C332.614 398.454 333.437 400.042 334.755 401.153C336.072 402.264 337.776 402.807 339.494 402.663L462.065 392.235C463.781 392.087 465.37 391.264 466.48 389.947C467.591 388.629 468.134 386.925 467.99 385.208L466.739 370.501C466.591 368.784 465.768 367.196 464.45 366.085C463.133 364.974 461.429 364.431 459.711 364.576L337.14 375.003C335.424 375.151 333.835 375.974 332.725 377.292C331.614 378.609 331.071 380.313 331.215 382.031Z" fill="#FF4D5A"/>
<path d="M306.786 453.765L320.361 459.557C323.658 460.963 327.051 460.442 327.924 458.394L357.908 388.116C358.782 386.068 356.811 383.258 353.514 381.852L339.938 376.06C336.642 374.653 333.249 375.175 332.375 377.222L302.391 447.501C301.518 449.548 303.489 452.358 306.786 453.765Z" fill="#FF4D5A"/>
<path d="M83.4415 1.07897L108.849 20.5332L89.3946 45.9405L63.9873 26.4863L83.4415 1.07897Z" fill="#FF4D5A"/>
<path d="M227.114 202.152C214.963 202.152 205.114 192.303 205.114 180.152C205.114 168.002 214.963 158.152 227.114 158.152C239.264 158.152 249.114 168.002 249.114 180.152C249.114 192.303 239.264 202.152 227.114 202.152Z" fill="#FF6584"/>
<path d="M232.758 195.809C235.523 192.197 237.156 187.846 237.449 183.307C237.741 178.767 236.682 174.243 234.403 170.306C232.124 166.369 228.73 163.195 224.648 161.188C220.566 159.18 215.98 158.428 211.471 159.026C206.961 159.624 202.731 161.547 199.314 164.549C195.897 167.552 193.447 171.501 192.274 175.896C191.101 180.291 191.258 184.936 192.725 189.242C194.191 193.548 196.902 197.322 200.514 200.088C205.359 203.789 211.476 205.418 217.52 204.616C223.565 203.814 229.045 200.646 232.758 195.809ZM197.823 169.059C200.348 165.762 203.794 163.287 207.726 161.948C211.657 160.608 215.898 160.465 219.911 161.536C223.924 162.607 227.529 164.844 230.271 167.964C233.012 171.084 234.767 174.946 235.314 179.064C235.86 183.181 235.173 187.368 233.34 191.095C231.507 194.822 228.61 197.921 225.015 200.002C221.42 202.082 217.289 203.05 213.144 202.783C209 202.515 205.027 201.025 201.73 198.5C197.313 195.11 194.421 190.107 193.689 184.587C192.956 179.068 194.443 173.484 197.823 169.059Z" fill="#3F3D56"/>
<path d="M81.7773 47.6654L102.448 20.6701L75.4522 0L54.782 26.9953L81.7773 47.6654ZM99.6436 21.0422L81.4053 44.8616L57.5859 26.6232L75.8243 2.80389L99.6436 21.0422Z" fill="#3F3D56"/>
<path d="M28.6593 179.542L54.0667 198.996L34.6124 224.403L9.20508 204.949L28.6593 179.542Z" fill="#FF4D5A"/>
<path d="M26.9952 226.128L47.6653 199.133L20.67 178.463L-0.00012207 205.458L26.9952 226.128ZM44.8614 199.505L26.6231 223.324L2.80371 205.086L21.0421 181.267L44.8614 199.505Z" fill="#3F3D56"/>
<path d="M142.655 572.996H766.655V574.996H142.655V572.996Z" fill="#3F3D56"/>
<path d="M659.655 476.996C678.642 476.996 697.202 471.366 712.989 460.817C728.776 450.269 741.081 435.275 748.347 417.734C755.613 400.192 757.514 380.89 753.81 362.267C750.106 343.645 740.963 326.54 727.537 313.114C714.111 299.688 697.005 290.545 678.383 286.841C659.761 283.137 640.459 285.038 622.917 292.304C605.375 299.57 590.382 311.874 579.833 327.661C569.285 343.449 563.655 362.009 563.655 380.996C563.683 406.448 573.807 430.849 591.804 448.847C609.801 466.844 634.203 476.967 659.655 476.996ZM659.655 286.996C678.246 286.996 696.42 292.509 711.878 302.838C727.336 313.167 739.385 327.848 746.499 345.024C753.614 362.2 755.475 381.1 751.848 399.335C748.221 417.569 739.269 434.318 726.123 447.464C712.976 460.61 696.227 469.563 677.993 473.19C659.759 476.817 640.859 474.955 623.682 467.841C606.506 460.726 591.825 448.678 581.496 433.22C571.168 417.762 565.655 399.588 565.655 380.996C565.683 356.074 575.595 332.182 593.218 314.559C610.84 296.937 634.733 287.024 659.655 286.996Z" fill="#3F3D56"/>
<path d="M451.233 238.525C421.675 238.525 397.714 214.563 397.714 185.005C397.714 155.448 421.675 131.486 451.233 131.486C480.791 131.486 504.752 155.448 504.752 185.005C504.752 214.563 480.791 238.525 451.233 238.525Z" fill="#FF4D5A"/>
<path d="M443.358 204.842L443.413 202.842C439.693 202.738 436.412 202.505 433.948 200.704C433.249 200.165 432.674 199.481 432.263 198.699C431.853 197.918 431.615 197.057 431.566 196.176C431.523 195.637 431.604 195.096 431.804 194.594C432.004 194.092 432.317 193.643 432.719 193.281C434.355 191.899 436.988 192.347 438.907 193.227L440.562 193.985L437.388 170.795L435.407 171.066L438.106 190.793C435.499 190.026 433.083 190.356 431.428 191.754C430.793 192.309 430.294 193.003 429.971 193.782C429.649 194.561 429.51 195.405 429.568 196.246C429.626 197.431 429.943 198.588 430.496 199.637C431.048 200.686 431.824 201.602 432.768 202.319C435.935 204.634 440.051 204.749 443.358 204.842Z" fill="#2F2E41"/>
<path d="M414.836 172.768H425.608V174.768H414.836V172.768Z" fill="#2F2E41"/>
<path d="M448.836 172.768H459.608V174.768H448.836V172.768Z" fill="#2F2E41"/>
<path d="M374.655 399.496H500.655C501.848 399.495 502.991 399.02 503.835 398.177C504.679 397.333 505.153 396.189 505.155 394.996V293.775C505.141 281.506 500.26 269.742 491.584 261.066C482.908 252.39 471.145 247.51 458.875 247.496H417.655C416.474 247.497 415.342 247.962 414.501 248.789C413.659 249.617 413.176 250.741 413.155 251.921L370.155 394.923V394.996C370.156 396.189 370.63 397.333 371.474 398.177C372.318 399.02 373.461 399.495 374.655 399.496Z" fill="#2F2E41"/>
<path d="M458.352 288.451L443.593 288.567C441.87 288.583 440.223 289.281 439.014 290.509C437.805 291.737 437.133 293.395 437.144 295.118L438.111 418.128C438.126 419.851 438.825 421.498 440.053 422.707C441.281 423.916 442.938 424.588 444.662 424.577L459.421 424.461C461.144 424.445 462.79 423.747 463.999 422.519C465.208 421.291 465.881 419.633 465.869 417.91L464.903 294.9C464.887 293.177 464.189 291.53 462.961 290.321C461.733 289.112 460.075 288.44 458.352 288.451Z" fill="#FF4D5A"/>
<path d="M473.155 283.496C473.155 277.661 470.837 272.066 466.711 267.94C462.585 263.814 456.989 261.496 451.155 261.496C445.32 261.496 439.724 263.814 435.598 267.94C431.472 272.066 429.155 277.661 429.155 283.496V332.496H473.155V283.496Z" fill="#2F2E41"/>
<path d="M467.042 159.8C461.974 154.584 454.61 153.687 447.68 154.255C440.259 154.863 433.228 157.328 425.949 158.699C418.769 160.051 410.985 160.657 404.123 157.662C400.954 156.239 398.208 154.019 396.154 151.218C394.099 148.418 392.806 145.132 392.399 141.683C391.516 134.438 393.393 127.127 397.656 121.204C402.356 114.563 409.034 109.698 415.975 105.615C430.936 96.8131 447.619 89.1112 465.125 87.6874C480.929 86.4019 497.688 90.7696 508.805 102.573C519.227 113.637 523.663 129.079 524.586 143.949C525.763 162.928 521.334 181.671 519.731 200.49C518.484 215.133 518.951 232.713 530.843 243.229C541.362 252.53 557.38 252.419 569.781 247.338C584.522 241.298 594.866 227.741 602.689 214.415C604.681 211.023 606.553 207.562 608.369 204.073C609.26 202.36 611.85 203.875 610.959 205.587C603.638 219.658 595.121 233.712 582.315 243.461C571.117 251.986 556.176 256.093 542.336 252.49C535.625 250.815 529.631 247.027 525.238 241.685C520.494 235.775 518.005 228.503 516.966 221.063C515.855 213.1 516.242 205.075 517.047 197.103C518.017 187.506 519.562 177.979 520.62 168.392C522.423 152.065 522.671 135.12 516.22 119.694C513.439 112.814 509.118 106.663 503.589 101.714C497.537 96.6121 490.277 93.15 482.503 91.6595C465.544 88.1401 448.304 92.9051 432.952 100.086C425.203 103.547 417.787 107.708 410.795 112.518C404.597 116.954 398.825 122.763 396.438 130.171C394.381 136.555 394.552 144.112 398.654 149.679C403.038 155.628 410.635 157.114 417.6 156.756C431.907 156.02 446.324 147.706 460.72 152.451C463.916 153.484 466.814 155.278 469.164 157.679C470.51 159.064 468.391 161.187 467.042 159.8Z" fill="#2F2E41"/>
</g>
<defs>
<clipPath id="clip0_72_4743">
<rect width="767.655" height="595.996" fill="white" transform="matrix(-1 0 0 1 767.655 0)"/>
</clipPath>
</defs>
</svg>
